<svg baseProfile="full" height="79.0" version="1.1" width="1050" xmlns="http://www.w3.org/2000/svg" xmlns:ev="http://www.w3.org/2001/xml-events" xmlns:xlink="http://www.w3.org/1999/xlink"><defs><marker id="id1" markerHeight="10" markerWidth="10" orient="auto" refX="0" refY="3"><path d="M6,0 L6,7 L0,3 L6,0" fill="#00A000" /></marker><marker id="id2" markerHeight="10" markerWidth="10" orient="auto" refX="6" refY="3"><path d="M0,0 L0,7 L6,3 L0,0" fill="#00A000" /></marker><marker id="id3" markerHeight="10" markerWidth="10" orient="auto" refX="0" refY="3"><path d="M6,0 L6,7 L0,3 L6,0" fill="#CD3F85" /></marker><marker id="id4" markerHeight="10" markerWidth="10" orient="auto" refX="6" refY="3"><path d="M0,0 L0,7 L6,3 L0,0" fill="#CD3F85" /></marker><marker id="id5" markerHeight="10" markerWidth="10" orient="auto" refX="0" refY="3"><path d="M6,0 L6,7 L0,3 L6,0" fill="#0000F0" /></marker><marker id="id6" markerHeight="10" markerWidth="10" orient="auto" refX="6" refY="3"><path d="M0,0 L0,7 L6,3 L0,0" fill="#0000F0" /></marker></defs><rect fill="#00A000" fill-opacity="0.15" height="79.0" width="41" x="10" y="0" /><line stroke="#00A000" stroke-dasharray="5 5" stroke-width="0.5" x1="10" x2="10" y1="0" y2="40" /><line stroke="#00A000" stroke-dasharray="5 5" stroke-width="0.5" x1="51" x2="51" y1="0" y2="40" /><line marker-end="url(#id2)" marker-start="url(#id1)" stroke="#00A000" stroke-width="0.75" x1="10" x2="51" y1="10" y2="10" /><text fill="#00A000" font-family="Helevetica" font-size="6pt" stroke="none" text-anchor="middle" x="30.5" y="8.5">STMicro</text><rect fill="#00A000" fill-opacity="0.15" height="79.0" width="162" x="51" y="0" /><line stroke="#00A000" stroke-dasharray="5 5" stroke-width="0.5" x1="51" x2="51" y1="0" y2="40" /><line stroke="#00A000" stroke-dasharray="5 5" stroke-width="0.5" x1="213" x2="213" y1="0" y2="40" /><line marker-end="url(#id2)" marker-start="url(#id1)" stroke="#00A000" stroke-width="0.75" x1="51" x2="213" y1="10" y2="10" /><text fill="#00A000" font-family="Helevetica" font-size="6pt" stroke="none" text-anchor="middle" x="132.0" y="8.5">Mathworks</text><rect fill="#CD3F85" fill-opacity="0.15" height="79.0" width="98" x="213" y="0" /><line stroke="#CD3F85" stroke-dasharray="5 5" stroke-width="0.5" x1="213" x2="213" y1="0" y2="40" /><line stroke="#CD3F85" stroke-dasharray="5 5" stroke-width="0.5" x1="311" x2="311" y1="0" y2="40" /><line marker-end="url(#id4)" marker-start="url(#id3)" stroke="#CD3F85" stroke-width="0.75" x1="213" x2="311" y1="10" y2="10" /><text fill="#CD3F85" font-family="Helevetica" font-size="6pt" stroke="none" text-anchor="middle" x="262.0" y="8.5">Voyage Asie/Amérique du Sud</text><rect fill="#00A000" fill-opacity="0.15" height="79.0" width="41" x="322" y="0" /><line stroke="#00A000" stroke-dasharray="5 5" stroke-width="0.5" x1="322" x2="322" y1="0" y2="40" /><line stroke="#00A000" stroke-dasharray="5 5" stroke-width="0.5" x1="363" x2="363" y1="0" y2="40" /><line marker-end="url(#id2)" marker-start="url(#id1)" stroke="#00A000" stroke-width="0.75" x1="322" x2="363" y1="10" y2="10" /><text fill="#00A000" font-family="Helevetica" font-size="6pt" stroke="none" text-anchor="middle" x="342.5" y="8.5">Nicolas Bourbaki</text><rect fill="#00A000" fill-opacity="0.15" height="79.0" width="64" x="357" y="0" /><line stroke="#00A000" stroke-dasharray="5 5" stroke-width="0.5" x1="357" x2="357" y1="0" y2="40" /><line stroke="#00A000" stroke-dasharray="5 5" stroke-width="0.5" x1="421" x2="421" y1="0" y2="40" /><line marker-end="url(#id2)" marker-start="url(#id1)" stroke="#00A000" stroke-width="0.75" x1="357" x2="421" y1="10" y2="10" /><text fill="#00A000" font-family="Helevetica" font-size="6pt" stroke="none" text-anchor="middle" x="389.0" y="8.5">Kaizen</text><rect fill="#00A000" fill-opacity="0.15" height="79.0" width="69" x="421" y="0" /><line stroke="#00A000" stroke-dasharray="5 5" stroke-width="0.5" x1="421" x2="421" y1="0" y2="40" /><line stroke="#00A000" stroke-dasharray="5 5" stroke-width="0.5" x1="490" x2="490" y1="0" y2="40" /><line marker-end="url(#id2)" marker-start="url(#id1)" stroke="#00A000" stroke-width="0.75" x1="421" x2="490" y1="10" y2="10" /><text fill="#00A000" font-family="Helevetica" font-size="6pt" stroke="none" text-anchor="middle" x="455.5" y="8.5">INRIA</text><rect fill="#CD3F85" fill-opacity="0.15" height="79.0" width="17" x="490" y="0" /><line stroke="#CD3F85" stroke-dasharray="5 5" stroke-width="0.5" x1="490" x2="490" y1="0" y2="40" /><line stroke="#CD3F85" stroke-dasharray="5 5" stroke-width="0.5" x1="507" x2="507" y1="0" y2="40" /><line marker-end="url(#id4)" marker-start="url(#id3)" stroke="#CD3F85" stroke-width="0.75" x1="490" x2="507" y1="10" y2="10" /><text fill="#CD3F85" font-family="Helevetica" font-size="6pt" stroke="none" text-anchor="middle" x="498.5" y="8.5">Voyage Colombie</text><rect fill="#0000F0" fill-opacity="0.15" height="79.0" width="87" x="507" y="0" /><line stroke="#0000F0" stroke-dasharray="5 5" stroke-width="0.5" x1="507" x2="507" y1="0" y2="40" /><line stroke="#0000F0" stroke-dasharray="5 5" stroke-width="0.5" x1="594" x2="594" y1="0" y2="40" /><line marker-end="url(#id6)" marker-start="url(#id5)" stroke="#0000F0" stroke-width="0.75" x1="507" x2="594" y1="10" y2="10" /><text fill="#0000F0" font-family="Helevetica" font-size="6pt" stroke="none" text-anchor="middle" x="550.5" y="8.5">CAP Charpente</text><rect fill="#00A000" fill-opacity="0.15" height="79.0" width="157" x="611" y="0" /><line stroke="#00A000" stroke-dasharray="5 5" stroke-width="0.5" x1="611" x2="611" y1="0" y2="40" /><line stroke="#00A000" stroke-dasharray="5 5" stroke-width="0.5" x1="768" x2="768" y1="0" y2="40" /><line marker-end="url(#id2)" marker-start="url(#id1)" stroke="#00A000" stroke-width="0.75" x1="611" x2="768" y1="10" y2="10" /><text fill="#00A000" font-family="Helevetica" font-size="6pt" stroke="none" text-anchor="middle" x="689.5" y="8.5">AllegroDVT</text><rect fill="#00A000" fill-opacity="0.15" height="79.0" width="261" x="779" y="0" /><line stroke="#00A000" stroke-dasharray="5 5" stroke-width="0.5" x1="779" x2="779" y1="0" y2="40" /><line stroke="#00A000" stroke-dasharray="5 5" stroke-width="0.5" x1="1040" x2="1040" y1="0" y2="40" /><line marker-end="url(#id2)" marker-start="url(#id1)" stroke="#00A000" stroke-width="0.75" x1="779" x2="1040" y1="10" y2="10" /><text fill="#00A000" font-family="Helevetica" font-size="6pt" stroke="none" text-anchor="middle" x="909.5" y="8.5">Linaro</text><g transform="translate(0,40)"><line stroke="#000000" stroke-width="3" x1="0" x2="1050" y1="0" y2="0" /><line stroke="#000000" stroke-width="2" x1="10" x2="10" y1="-5" y2="5" /><text fill="#C0C0C0" font-family="Helevetica" font-size="6pt" stroke="none" text-anchor="end" transform="rotate(180, 10, 0)" writing-mode="tb" x="10" y="-10">Feb 01, 2011</text><line stroke="#000000" stroke-width="2" x1="1040" x2="1040" y1="-5" y2="5" /><text fill="#C0C0C0" font-family="Helevetica" font-size="6pt" stroke="none" text-anchor="end" transform="rotate(180, 1040, 0)" writing-mode="tb" x="1040" y="-10">Dec 04, 2025</text><path d="M51,0 L51,-15 L41,-15" fill="none" stroke="#000000" stroke-width="1" /><text fill="#000000" font-family="Helevetica" font-size="6pt" stroke="none" text-anchor="end" x="38" y="-13.5">Diplômé</text><text fill="#000000" font-family="Helevetica" font-size="6pt" stroke="none" text-anchor="end" transform="rotate(180, 51, 0)" writing-mode="tb" x="51" y="-10">Sep 01, 2011</text><circle cx="51" cy="0" fill="white" r="4" stroke="#000000" stroke-width="1" /><text fill="#000000" font-family="Helevetica" font-size="6pt" stroke="none" text-anchor="end" transform="rotate(180, 10, 0)" writing-mode="tb" x="10" y="-10">Feb 01, 2011</text><text fill="#000000" font-family="Helevetica" font-size="6pt" stroke="none" text-anchor="end" transform="rotate(180, 51, 0)" writing-mode="tb" x="51" y="-10">Sep 01, 2011</text><text fill="#000000" font-family="Helevetica" font-size="6pt" stroke="none" text-anchor="end" transform="rotate(180, 51, 0)" writing-mode="tb" x="51" y="-10">Sep 01, 2011</text><text fill="#000000" font-family="Helevetica" font-size="6pt" stroke="none" text-anchor="end" transform="rotate(180, 213, 0)" writing-mode="tb" x="213" y="-10">Jan 01, 2014</text><text fill="#000000" font-family="Helevetica" font-size="6pt" stroke="none" text-anchor="end" transform="rotate(180, 213, 0)" writing-mode="tb" x="213" y="-10">Jan 01, 2014</text><text fill="#000000" font-family="Helevetica" font-size="6pt" stroke="none" text-anchor="end" transform="rotate(180, 311, 0)" writing-mode="tb" x="311" y="-10">Jun 01, 2015</text><text fill="#000000" font-family="Helevetica" font-size="6pt" stroke="none" text-anchor="end" transform="rotate(180, 322, 0)" writing-mode="tb" x="322" y="-10">Aug 01, 2015</text><text fill="#000000" font-family="Helevetica" font-size="6pt" stroke="none" text-anchor="end" transform="rotate(180, 363, 0)" writing-mode="tb" x="363" y="-10">Mar 01, 2016</text><text fill="#000000" font-family="Helevetica" font-size="6pt" stroke="none" text-anchor="end" transform="rotate(180, 357, 0)" writing-mode="tb" x="357" y="-10">Feb 01, 2016</text><text fill="#000000" font-family="Helevetica" font-size="6pt" stroke="none" text-anchor="end" transform="rotate(180, 421, 0)" writing-mode="tb" x="421" y="-10">Jan 01, 2017</text><text fill="#000000" font-family="Helevetica" font-size="6pt" stroke="none" text-anchor="end" transform="rotate(180, 421, 0)" writing-mode="tb" x="421" y="-10">Jan 01, 2017</text><text fill="#000000" font-family="Helevetica" font-size="6pt" stroke="none" text-anchor="end" transform="rotate(180, 490, 0)" writing-mode="tb" x="490" y="-10">Jan 01, 2018</text><text fill="#000000" font-family="Helevetica" font-size="6pt" stroke="none" text-anchor="end" transform="rotate(180, 490, 0)" writing-mode="tb" x="490" y="-10">Jan 01, 2018</text><text fill="#000000" font-family="Helevetica" font-size="6pt" stroke="none" text-anchor="end" transform="rotate(180, 507, 0)" writing-mode="tb" x="507" y="-10">Apr 01, 2018</text><text fill="#000000" font-family="Helevetica" font-size="6pt" stroke="none" text-anchor="end" transform="rotate(180, 507, 0)" writing-mode="tb" x="507" y="-10">Apr 01, 2018</text><text fill="#000000" font-family="Helevetica" font-size="6pt" stroke="none" text-anchor="end" transform="rotate(180, 594, 0)" writing-mode="tb" x="594" y="-10">Jul 01, 2019</text><text fill="#000000" font-family="Helevetica" font-size="6pt" stroke="none" text-anchor="end" transform="rotate(180, 611, 0)" writing-mode="tb" x="611" y="-10">Oct 01, 2019</text><text fill="#000000" font-family="Helevetica" font-size="6pt" stroke="none" text-anchor="end" transform="rotate(180, 768, 0)" writing-mode="tb" x="768" y="-10">Jan 01, 2022</text><text fill="#000000" font-family="Helevetica" font-size="6pt" stroke="none" text-anchor="end" transform="rotate(180, 779, 0)" writing-mode="tb" x="779" y="-10">Mar 01, 2022</text><text fill="#000000" font-family="Helevetica" font-size="6pt" stroke="none" text-anchor="end" transform="rotate(180, 1040, 0)" writing-mode="tb" x="1040" y="-10">Dec 04, 2025</text></g></svg>
