<svg baseProfile="full" height="110.0" version="1.1" width="1050" xmlns="http://www.w3.org/2000/svg" xmlns:ev="http://www.w3.org/2001/xml-events" xmlns:xlink="http://www.w3.org/1999/xlink"><defs><marker id="id1" markerHeight="10" markerWidth="10" orient="auto" refX="0" refY="3"><path d="M6,0 L6,7 L0,3 L6,0" fill="#00A000" /></marker><marker id="id2" markerHeight="10" markerWidth="10" orient="auto" refX="6" refY="3"><path d="M0,0 L0,7 L6,3 L0,0" fill="#00A000" /></marker><marker id="id3" markerHeight="10" markerWidth="10" orient="auto" refX="0" refY="3"><path d="M6,0 L6,7 L0,3 L6,0" fill="#CD3F85" /></marker><marker id="id4" markerHeight="10" markerWidth="10" orient="auto" refX="6" refY="3"><path d="M0,0 L0,7 L6,3 L0,0" fill="#CD3F85" /></marker><marker id="id5" markerHeight="10" markerWidth="10" orient="auto" refX="0" refY="3"><path d="M6,0 L6,7 L0,3 L6,0" fill="#0000F0" /></marker><marker id="id6" markerHeight="10" markerWidth="10" orient="auto" refX="6" refY="3"><path d="M0,0 L0,7 L6,3 L0,0" fill="#0000F0" /></marker></defs><rect fill="#00A000" fill-opacity="0.15" height="110.0" width="60" x="19" y="0" /><line stroke="#00A000" stroke-dasharray="5 5" stroke-width="0.5" x1="19" x2="19" y1="0" y2="40" /><line stroke="#00A000" stroke-dasharray="5 5" stroke-width="0.5" x1="79" x2="79" y1="0" y2="40" /><line marker-end="url(#id2)" marker-start="url(#id1)" stroke="#00A000" stroke-width="0.75" x1="19" x2="79" y1="10" y2="10" /><text fill="#00A000" font-family="Helevetica" font-size="6pt" stroke="none" text-anchor="middle" x="49.0" y="8.5">STMicro</text><rect fill="#00A000" fill-opacity="0.15" height="110.0" width="241" x="79" y="0" /><line stroke="#00A000" stroke-dasharray="5 5" stroke-width="0.5" x1="79" x2="79" y1="0" y2="40" /><line stroke="#00A000" stroke-dasharray="5 5" stroke-width="0.5" x1="320" x2="320" y1="0" y2="40" /><line marker-end="url(#id2)" marker-start="url(#id1)" stroke="#00A000" stroke-width="0.75" x1="79" x2="320" y1="10" y2="10" /><text fill="#00A000" font-family="Helevetica" font-size="6pt" stroke="none" text-anchor="middle" x="199.5" y="8.5">Mathworks</text><rect fill="#CD3F85" fill-opacity="0.15" height="110.0" width="129" x="320" y="0" /><line stroke="#CD3F85" stroke-dasharray="5 5" stroke-width="0.5" x1="320" x2="320" y1="0" y2="40" /><line stroke="#CD3F85" stroke-dasharray="5 5" stroke-width="0.5" x1="449" x2="449" y1="0" y2="40" /><line marker-end="url(#id4)" marker-start="url(#id3)" stroke="#CD3F85" stroke-width="0.75" x1="320" x2="449" y1="10" y2="10" /><text fill="#CD3F85" font-family="Helevetica" font-size="6pt" stroke="none" text-anchor="middle" x="384.5" y="8.5">Voyage Asie et Amérique du Sud</text><rect fill="#00A000" fill-opacity="0.15" height="110.0" width="44" x="483" y="0" /><line stroke="#00A000" stroke-dasharray="5 5" stroke-width="0.5" x1="483" x2="483" y1="0" y2="40" /><line stroke="#00A000" stroke-dasharray="5 5" stroke-width="0.5" x1="527" x2="527" y1="0" y2="40" /><line marker-end="url(#id2)" marker-start="url(#id1)" stroke="#00A000" stroke-width="0.75" x1="483" x2="527" y1="10" y2="10" /><text fill="#00A000" font-family="Helevetica" font-size="6pt" stroke="none" text-anchor="middle" x="505.0" y="8.5">Nicolas Bourbaki</text><rect fill="#00A000" fill-opacity="0.15" height="110.0" width="69" x="535" y="0" /><line stroke="#00A000" stroke-dasharray="5 5" stroke-width="0.5" x1="535" x2="535" y1="0" y2="40" /><line stroke="#00A000" stroke-dasharray="5 5" stroke-width="0.5" x1="604" x2="604" y1="0" y2="40" /><line marker-end="url(#id2)" marker-start="url(#id1)" stroke="#00A000" stroke-width="0.75" x1="535" x2="604" y1="10" y2="10" /><text fill="#00A000" font-family="Helevetica" font-size="6pt" stroke="none" text-anchor="middle" x="569.5" y="8.5">Kaizen</text><rect fill="#00A000" fill-opacity="0.15" height="110.0" width="26" x="604" y="0" /><line stroke="#00A000" stroke-dasharray="5 5" stroke-width="0.5" x1="604" x2="604" y1="0" y2="40" /><line stroke="#00A000" stroke-dasharray="5 5" stroke-width="0.5" x1="630" x2="630" y1="0" y2="40" /><line marker-end="url(#id2)" marker-start="url(#id1)" stroke="#00A000" stroke-width="0.75" x1="604" x2="630" y1="10" y2="10" /><text fill="#00A000" font-family="Helevetica" font-size="6pt" stroke="none" text-anchor="middle" x="617.0" y="8.5">Mentor</text><rect fill="#00A000" fill-opacity="0.15" height="110.0" width="94" x="639" y="0" /><line stroke="#00A000" stroke-dasharray="5 5" stroke-width="0.5" x1="639" x2="639" y1="0" y2="40" /><line stroke="#00A000" stroke-dasharray="5 5" stroke-width="0.5" x1="733" x2="733" y1="0" y2="40" /><line marker-end="url(#id2)" marker-start="url(#id1)" stroke="#00A000" stroke-width="0.75" x1="639" x2="733" y1="10" y2="10" /><text fill="#00A000" font-family="Helevetica" font-size="6pt" stroke="none" text-anchor="middle" x="686.0" y="8.5">INRIA</text><rect fill="#CD3F85" fill-opacity="0.15" height="110.0" width="26" x="733" y="0" /><line stroke="#CD3F85" stroke-dasharray="5 5" stroke-width="0.5" x1="733" x2="733" y1="0" y2="40" /><line stroke="#CD3F85" stroke-dasharray="5 5" stroke-width="0.5" x1="759" x2="759" y1="0" y2="40" /><line marker-end="url(#id4)" marker-start="url(#id3)" stroke="#CD3F85" stroke-width="0.75" x1="733" x2="759" y1="10" y2="10" /><text fill="#CD3F85" font-family="Helevetica" font-size="6pt" stroke="none" text-anchor="middle" x="746.0" y="8.5">Voyage Colombie</text><rect fill="#0000F0" fill-opacity="0.15" height="110.0" width="118" x="767" y="0" /><line stroke="#0000F0" stroke-dasharray="5 5" stroke-width="0.5" x1="767" x2="767" y1="0" y2="40" /><line stroke="#0000F0" stroke-dasharray="5 5" stroke-width="0.5" x1="885" x2="885" y1="0" y2="40" /><line marker-end="url(#id6)" marker-start="url(#id5)" stroke="#0000F0" stroke-width="0.75" x1="767" x2="885" y1="10" y2="10" /><text fill="#0000F0" font-family="Helevetica" font-size="6pt" stroke="none" text-anchor="middle" x="826.0" y="8.5">CAP Charpente</text><rect fill="#00A000" fill-opacity="0.15" height="110.0" width="126" x="914" y="0" /><line stroke="#00A000" stroke-dasharray="5 5" stroke-width="0.5" x1="914" x2="914" y1="0" y2="40" /><line stroke="#00A000" stroke-dasharray="5 5" stroke-width="0.5" x1="1040" x2="1040" y1="0" y2="40" /><line marker-end="url(#id2)" marker-start="url(#id1)" stroke="#00A000" stroke-width="0.75" x1="914" x2="1040" y1="10" y2="10" /><text fill="#00A000" font-family="Helevetica" font-size="6pt" stroke="none" text-anchor="middle" x="977.0" y="8.5">AllegroDVT</text><g transform="translate(0,40)"><line stroke="#000000" stroke-width="3" x1="0" x2="1050" y1="0" y2="0" /><line stroke="#000000" stroke-width="2" x1="10" x2="10" y1="-5" y2="5" /><text fill="#C0C0C0" font-family="Helevetica" font-size="6pt" stroke="none" text-anchor="end" transform="rotate(180, 10, 0)" writing-mode="tb" x="10" y="-10">Jan 01, 2011</text><line stroke="#000000" stroke-width="2" x1="1040" x2="1040" y1="-5" y2="5" /><text fill="#C0C0C0" font-family="Helevetica" font-size="6pt" stroke="none" text-anchor="end" transform="rotate(180, 1040, 0)" writing-mode="tb" x="1040" y="-10">Dec 19, 2020</text><path d="M79,0 L79,-15 L69,-15" fill="none" stroke="#000000" stroke-width="1" /><text fill="#000000" font-family="Helevetica" font-size="6pt" stroke="none" text-anchor="end" x="66" y="-13.5">Diplômé ENSIMAG</text><text fill="#000000" font-family="Helevetica" font-size="6pt" stroke="none" text-anchor="end" transform="rotate(180, 79, 0)" writing-mode="tb" x="79" y="-10">Sep 01, 2011</text><circle cx="79" cy="0" fill="white" r="4" stroke="#000000" stroke-width="1" /><text fill="#000000" font-family="Helevetica" font-size="6pt" stroke="none" text-anchor="end" transform="rotate(180, 19, 0)" writing-mode="tb" x="19" y="-10">Feb 01, 2011</text><text fill="#000000" font-family="Helevetica" font-size="6pt" stroke="none" text-anchor="end" transform="rotate(180, 79, 0)" writing-mode="tb" x="79" y="-10">Sep 01, 2011</text><text fill="#000000" font-family="Helevetica" font-size="6pt" stroke="none" text-anchor="end" transform="rotate(180, 79, 0)" writing-mode="tb" x="79" y="-10">Sep 01, 2011</text><text fill="#000000" font-family="Helevetica" font-size="6pt" stroke="none" text-anchor="end" transform="rotate(180, 320, 0)" writing-mode="tb" x="320" y="-10">Jan 01, 2014</text><text fill="#000000" font-family="Helevetica" font-size="6pt" stroke="none" text-anchor="end" transform="rotate(180, 320, 0)" writing-mode="tb" x="320" y="-10">Jan 01, 2014</text><text fill="#000000" font-family="Helevetica" font-size="6pt" stroke="none" text-anchor="end" transform="rotate(180, 449, 0)" writing-mode="tb" x="449" y="-10">Apr 01, 2015</text><text fill="#000000" font-family="Helevetica" font-size="6pt" stroke="none" text-anchor="end" transform="rotate(180, 483, 0)" writing-mode="tb" x="483" y="-10">Aug 01, 2015</text><text fill="#000000" font-family="Helevetica" font-size="6pt" stroke="none" text-anchor="end" transform="rotate(180, 527, 0)" writing-mode="tb" x="527" y="-10">Jan 01, 2016</text><text fill="#000000" font-family="Helevetica" font-size="6pt" stroke="none" text-anchor="end" transform="rotate(180, 535, 0)" writing-mode="tb" x="535" y="-10">Feb 01, 2016</text><text fill="#000000" font-family="Helevetica" font-size="6pt" stroke="none" text-anchor="end" transform="rotate(180, 604, 0)" writing-mode="tb" x="604" y="-10">Oct 01, 2016</text><text fill="#000000" font-family="Helevetica" font-size="6pt" stroke="none" text-anchor="end" transform="rotate(180, 604, 0)" writing-mode="tb" x="604" y="-10">Oct 01, 2016</text><text fill="#000000" font-family="Helevetica" font-size="6pt" stroke="none" text-anchor="end" transform="rotate(180, 630, 0)" writing-mode="tb" x="630" y="-10">Jan 01, 2017</text><text fill="#000000" font-family="Helevetica" font-size="6pt" stroke="none" text-anchor="end" transform="rotate(180, 639, 0)" writing-mode="tb" x="639" y="-10">Feb 01, 2017</text><text fill="#000000" font-family="Helevetica" font-size="6pt" stroke="none" text-anchor="end" transform="rotate(180, 733, 0)" writing-mode="tb" x="733" y="-10">Jan 01, 2018</text><text fill="#000000" font-family="Helevetica" font-size="6pt" stroke="none" text-anchor="end" transform="rotate(180, 733, 0)" writing-mode="tb" x="733" y="-10">Jan 01, 2018</text><text fill="#000000" font-family="Helevetica" font-size="6pt" stroke="none" text-anchor="end" transform="rotate(180, 759, 0)" writing-mode="tb" x="759" y="-10">Apr 01, 2018</text><text fill="#000000" font-family="Helevetica" font-size="6pt" stroke="none" text-anchor="end" transform="rotate(180, 767, 0)" writing-mode="tb" x="767" y="-10">May 01, 2018</text><text fill="#000000" font-family="Helevetica" font-size="6pt" stroke="none" text-anchor="end" transform="rotate(180, 885, 0)" writing-mode="tb" x="885" y="-10">Jun 21, 2019</text><text fill="#000000" font-family="Helevetica" font-size="6pt" stroke="none" text-anchor="end" transform="rotate(180, 914, 0)" writing-mode="tb" x="914" y="-10">Oct 01, 2019</text><text fill="#000000" font-family="Helevetica" font-size="6pt" stroke="none" text-anchor="end" transform="rotate(180, 1040, 0)" writing-mode="tb" x="1040" y="-10">Dec 19, 2020</text></g></svg>
