<svg baseProfile="full" height="111.0" version="1.1" width="1050" xmlns="http://www.w3.org/2000/svg" xmlns:ev="http://www.w3.org/2001/xml-events" xmlns:xlink="http://www.w3.org/1999/xlink"><defs><marker id="id1" markerHeight="10" markerWidth="10" orient="auto" refX="0" refY="3"><path d="M6,0 L6,7 L0,3 L6,0" fill="#00A000" /></marker><marker id="id2" markerHeight="10" markerWidth="10" orient="auto" refX="6" refY="3"><path d="M0,0 L0,7 L6,3 L0,0" fill="#00A000" /></marker><marker id="id3" markerHeight="10" markerWidth="10" orient="auto" refX="0" refY="3"><path d="M6,0 L6,7 L0,3 L6,0" fill="#CD3F85" /></marker><marker id="id4" markerHeight="10" markerWidth="10" orient="auto" refX="6" refY="3"><path d="M0,0 L0,7 L6,3 L0,0" fill="#CD3F85" /></marker><marker id="id5" markerHeight="10" markerWidth="10" orient="auto" refX="0" refY="3"><path d="M6,0 L6,7 L0,3 L6,0" fill="#0000F0" /></marker><marker id="id6" markerHeight="10" markerWidth="10" orient="auto" refX="6" refY="3"><path d="M0,0 L0,7 L6,3 L0,0" fill="#0000F0" /></marker></defs><rect fill="#00A000" fill-opacity="0.15" height="111.0" width="61" x="19" y="0" /><line stroke="#00A000" stroke-dasharray="5 5" stroke-width="0.5" x1="19" x2="19" y1="0" y2="40" /><line stroke="#00A000" stroke-dasharray="5 5" stroke-width="0.5" x1="80" x2="80" y1="0" y2="40" /><line marker-end="url(#id2)" marker-start="url(#id1)" stroke="#00A000" stroke-width="0.75" x1="19" x2="80" y1="10" y2="10" /><text fill="#00A000" font-family="Helevetica" font-size="6pt" stroke="none" text-anchor="middle" x="49.5" y="8.5">STMicro</text><rect fill="#00A000" fill-opacity="0.15" height="111.0" width="243" x="80" y="0" /><line stroke="#00A000" stroke-dasharray="5 5" stroke-width="0.5" x1="80" x2="80" y1="0" y2="40" /><line stroke="#00A000" stroke-dasharray="5 5" stroke-width="0.5" x1="323" x2="323" y1="0" y2="40" /><line marker-end="url(#id2)" marker-start="url(#id1)" stroke="#00A000" stroke-width="0.75" x1="80" x2="323" y1="10" y2="10" /><text fill="#00A000" font-family="Helevetica" font-size="6pt" stroke="none" text-anchor="middle" x="201.5" y="8.5">Mathworks</text><rect fill="#CD3F85" fill-opacity="0.15" height="111.0" width="130" x="323" y="0" /><line stroke="#CD3F85" stroke-dasharray="5 5" stroke-width="0.5" x1="323" x2="323" y1="0" y2="40" /><line stroke="#CD3F85" stroke-dasharray="5 5" stroke-width="0.5" x1="453" x2="453" y1="0" y2="40" /><line marker-end="url(#id4)" marker-start="url(#id3)" stroke="#CD3F85" stroke-width="0.75" x1="323" x2="453" y1="10" y2="10" /><text fill="#CD3F85" font-family="Helevetica" font-size="6pt" stroke="none" text-anchor="middle" x="388.0" y="8.5">Voyage Asie et Amérique du Sud</text><rect fill="#00A000" fill-opacity="0.15" height="111.0" width="43" x="488" y="0" /><line stroke="#00A000" stroke-dasharray="5 5" stroke-width="0.5" x1="488" x2="488" y1="0" y2="40" /><line stroke="#00A000" stroke-dasharray="5 5" stroke-width="0.5" x1="531" x2="531" y1="0" y2="40" /><line marker-end="url(#id2)" marker-start="url(#id1)" stroke="#00A000" stroke-width="0.75" x1="488" x2="531" y1="10" y2="10" /><text fill="#00A000" font-family="Helevetica" font-size="6pt" stroke="none" text-anchor="middle" x="509.5" y="8.5">Nicolas Bourbaki</text><rect fill="#00A000" fill-opacity="0.15" height="111.0" width="69" x="540" y="0" /><line stroke="#00A000" stroke-dasharray="5 5" stroke-width="0.5" x1="540" x2="540" y1="0" y2="40" /><line stroke="#00A000" stroke-dasharray="5 5" stroke-width="0.5" x1="609" x2="609" y1="0" y2="40" /><line marker-end="url(#id2)" marker-start="url(#id1)" stroke="#00A000" stroke-width="0.75" x1="540" x2="609" y1="10" y2="10" /><text fill="#00A000" font-family="Helevetica" font-size="6pt" stroke="none" text-anchor="middle" x="574.5" y="8.5">Kaizen</text><rect fill="#00A000" fill-opacity="0.15" height="111.0" width="27" x="609" y="0" /><line stroke="#00A000" stroke-dasharray="5 5" stroke-width="0.5" x1="609" x2="609" y1="0" y2="40" /><line stroke="#00A000" stroke-dasharray="5 5" stroke-width="0.5" x1="636" x2="636" y1="0" y2="40" /><line marker-end="url(#id2)" marker-start="url(#id1)" stroke="#00A000" stroke-width="0.75" x1="609" x2="636" y1="10" y2="10" /><text fill="#00A000" font-family="Helevetica" font-size="6pt" stroke="none" text-anchor="middle" x="622.5" y="8.5">Mentor</text><rect fill="#00A000" fill-opacity="0.15" height="111.0" width="95" x="645" y="0" /><line stroke="#00A000" stroke-dasharray="5 5" stroke-width="0.5" x1="645" x2="645" y1="0" y2="40" /><line stroke="#00A000" stroke-dasharray="5 5" stroke-width="0.5" x1="740" x2="740" y1="0" y2="40" /><line marker-end="url(#id2)" marker-start="url(#id1)" stroke="#00A000" stroke-width="0.75" x1="645" x2="740" y1="10" y2="10" /><text fill="#00A000" font-family="Helevetica" font-size="6pt" stroke="none" text-anchor="middle" x="692.5" y="8.5">INRIA</text><rect fill="#CD3F85" fill-opacity="0.15" height="111.0" width="26" x="740" y="0" /><line stroke="#CD3F85" stroke-dasharray="5 5" stroke-width="0.5" x1="740" x2="740" y1="0" y2="40" /><line stroke="#CD3F85" stroke-dasharray="5 5" stroke-width="0.5" x1="766" x2="766" y1="0" y2="40" /><line marker-end="url(#id4)" marker-start="url(#id3)" stroke="#CD3F85" stroke-width="0.75" x1="740" x2="766" y1="10" y2="10" /><text fill="#CD3F85" font-family="Helevetica" font-size="6pt" stroke="none" text-anchor="middle" x="753.0" y="8.5">Voyage Colombie</text><rect fill="#0000F0" fill-opacity="0.15" height="111.0" width="119" x="774" y="0" /><line stroke="#0000F0" stroke-dasharray="5 5" stroke-width="0.5" x1="774" x2="774" y1="0" y2="40" /><line stroke="#0000F0" stroke-dasharray="5 5" stroke-width="0.5" x1="893" x2="893" y1="0" y2="40" /><line marker-end="url(#id6)" marker-start="url(#id5)" stroke="#0000F0" stroke-width="0.75" x1="774" x2="893" y1="10" y2="10" /><text fill="#0000F0" font-family="Helevetica" font-size="6pt" stroke="none" text-anchor="middle" x="833.5" y="8.5">CAP Charpente</text><rect fill="#00A000" fill-opacity="0.15" height="111.0" width="118" x="922" y="0" /><line stroke="#00A000" stroke-dasharray="5 5" stroke-width="0.5" x1="922" x2="922" y1="0" y2="40" /><line stroke="#00A000" stroke-dasharray="5 5" stroke-width="0.5" x1="1040" x2="1040" y1="0" y2="40" /><line marker-end="url(#id2)" marker-start="url(#id1)" stroke="#00A000" stroke-width="0.75" x1="922" x2="1040" y1="10" y2="10" /><text fill="#00A000" font-family="Helevetica" font-size="6pt" stroke="none" text-anchor="middle" x="981.0" y="8.5">AllegroDVT</text><g transform="translate(0,40)"><line stroke="#000000" stroke-width="3" x1="0" x2="1050" y1="0" y2="0" /><line stroke="#000000" stroke-width="2" x1="10" x2="10" y1="-5" y2="5" /><text fill="#C0C0C0" font-family="Helevetica" font-size="6pt" stroke="none" text-anchor="end" transform="rotate(180, 10, 0)" writing-mode="tb" x="10" y="-10">Jan 01, 2011</text><line stroke="#000000" stroke-width="2" x1="1040" x2="1040" y1="-5" y2="5" /><text fill="#C0C0C0" font-family="Helevetica" font-size="6pt" stroke="none" text-anchor="end" transform="rotate(180, 1040, 0)" writing-mode="tb" x="1040" y="-10">Nov 17, 2020</text><path d="M80,0 L80,-15 L70,-15" fill="none" stroke="#000000" stroke-width="1" /><text fill="#000000" font-family="Helevetica" font-size="6pt" stroke="none" text-anchor="end" x="67" y="-13.5">Diplômé ENSIMAG</text><text fill="#000000" font-family="Helevetica" font-size="6pt" stroke="none" text-anchor="end" transform="rotate(180, 80, 0)" writing-mode="tb" x="80" y="-10">Sep 01, 2011</text><circle cx="80" cy="0" fill="white" r="4" stroke="#000000" stroke-width="1" /><text fill="#000000" font-family="Helevetica" font-size="6pt" stroke="none" text-anchor="end" transform="rotate(180, 19, 0)" writing-mode="tb" x="19" y="-10">Feb 01, 2011</text><text fill="#000000" font-family="Helevetica" font-size="6pt" stroke="none" text-anchor="end" transform="rotate(180, 80, 0)" writing-mode="tb" x="80" y="-10">Sep 01, 2011</text><text fill="#000000" font-family="Helevetica" font-size="6pt" stroke="none" text-anchor="end" transform="rotate(180, 80, 0)" writing-mode="tb" x="80" y="-10">Sep 01, 2011</text><text fill="#000000" font-family="Helevetica" font-size="6pt" stroke="none" text-anchor="end" transform="rotate(180, 323, 0)" writing-mode="tb" x="323" y="-10">Jan 01, 2014</text><text fill="#000000" font-family="Helevetica" font-size="6pt" stroke="none" text-anchor="end" transform="rotate(180, 323, 0)" writing-mode="tb" x="323" y="-10">Jan 01, 2014</text><text fill="#000000" font-family="Helevetica" font-size="6pt" stroke="none" text-anchor="end" transform="rotate(180, 453, 0)" writing-mode="tb" x="453" y="-10">Apr 01, 2015</text><text fill="#000000" font-family="Helevetica" font-size="6pt" stroke="none" text-anchor="end" transform="rotate(180, 488, 0)" writing-mode="tb" x="488" y="-10">Aug 01, 2015</text><text fill="#000000" font-family="Helevetica" font-size="6pt" stroke="none" text-anchor="end" transform="rotate(180, 531, 0)" writing-mode="tb" x="531" y="-10">Jan 01, 2016</text><text fill="#000000" font-family="Helevetica" font-size="6pt" stroke="none" text-anchor="end" transform="rotate(180, 540, 0)" writing-mode="tb" x="540" y="-10">Feb 01, 2016</text><text fill="#000000" font-family="Helevetica" font-size="6pt" stroke="none" text-anchor="end" transform="rotate(180, 609, 0)" writing-mode="tb" x="609" y="-10">Oct 01, 2016</text><text fill="#000000" font-family="Helevetica" font-size="6pt" stroke="none" text-anchor="end" transform="rotate(180, 609, 0)" writing-mode="tb" x="609" y="-10">Oct 01, 2016</text><text fill="#000000" font-family="Helevetica" font-size="6pt" stroke="none" text-anchor="end" transform="rotate(180, 636, 0)" writing-mode="tb" x="636" y="-10">Jan 01, 2017</text><text fill="#000000" font-family="Helevetica" font-size="6pt" stroke="none" text-anchor="end" transform="rotate(180, 645, 0)" writing-mode="tb" x="645" y="-10">Feb 01, 2017</text><text fill="#000000" font-family="Helevetica" font-size="6pt" stroke="none" text-anchor="end" transform="rotate(180, 740, 0)" writing-mode="tb" x="740" y="-10">Jan 01, 2018</text><text fill="#000000" font-family="Helevetica" font-size="6pt" stroke="none" text-anchor="end" transform="rotate(180, 740, 0)" writing-mode="tb" x="740" y="-10">Jan 01, 2018</text><text fill="#000000" font-family="Helevetica" font-size="6pt" stroke="none" text-anchor="end" transform="rotate(180, 766, 0)" writing-mode="tb" x="766" y="-10">Apr 01, 2018</text><text fill="#000000" font-family="Helevetica" font-size="6pt" stroke="none" text-anchor="end" transform="rotate(180, 774, 0)" writing-mode="tb" x="774" y="-10">May 01, 2018</text><text fill="#000000" font-family="Helevetica" font-size="6pt" stroke="none" text-anchor="end" transform="rotate(180, 893, 0)" writing-mode="tb" x="893" y="-10">Jun 21, 2019</text><text fill="#000000" font-family="Helevetica" font-size="6pt" stroke="none" text-anchor="end" transform="rotate(180, 922, 0)" writing-mode="tb" x="922" y="-10">Oct 01, 2019</text><text fill="#000000" font-family="Helevetica" font-size="6pt" stroke="none" text-anchor="end" transform="rotate(180, 1040, 0)" writing-mode="tb" x="1040" y="-10">Nov 17, 2020</text></g></svg>
