<svg baseProfile="full" height="110.0" version="1.1" width="1050" xmlns="http://www.w3.org/2000/svg" xmlns:ev="http://www.w3.org/2001/xml-events" xmlns:xlink="http://www.w3.org/1999/xlink"><defs><marker id="id1" markerHeight="10" markerWidth="10" orient="auto" refX="0" refY="3"><path d="M6,0 L6,7 L0,3 L6,0" fill="#00A000" /></marker><marker id="id2" markerHeight="10" markerWidth="10" orient="auto" refX="6" refY="3"><path d="M0,0 L0,7 L6,3 L0,0" fill="#00A000" /></marker><marker id="id3" markerHeight="10" markerWidth="10" orient="auto" refX="0" refY="3"><path d="M6,0 L6,7 L0,3 L6,0" fill="#CD3F85" /></marker><marker id="id4" markerHeight="10" markerWidth="10" orient="auto" refX="6" refY="3"><path d="M0,0 L0,7 L6,3 L0,0" fill="#CD3F85" /></marker><marker id="id5" markerHeight="10" markerWidth="10" orient="auto" refX="0" refY="3"><path d="M6,0 L6,7 L0,3 L6,0" fill="#0000F0" /></marker><marker id="id6" markerHeight="10" markerWidth="10" orient="auto" refX="6" refY="3"><path d="M0,0 L0,7 L6,3 L0,0" fill="#0000F0" /></marker></defs><rect fill="#00A000" fill-opacity="0.15" height="110.0" width="68" x="20" y="0" /><line stroke="#00A000" stroke-dasharray="5 5" stroke-width="0.5" x1="20" x2="20" y1="0" y2="40" /><line stroke="#00A000" stroke-dasharray="5 5" stroke-width="0.5" x1="88" x2="88" y1="0" y2="40" /><line marker-end="url(#id2)" marker-start="url(#id1)" stroke="#00A000" stroke-width="0.75" x1="20" x2="88" y1="10" y2="10" /><text fill="#00A000" font-family="Helevetica" font-size="6pt" stroke="none" text-anchor="middle" x="54.0" y="8.5">STMicro</text><rect fill="#00A000" fill-opacity="0.15" height="110.0" width="273" x="88" y="0" /><line stroke="#00A000" stroke-dasharray="5 5" stroke-width="0.5" x1="88" x2="88" y1="0" y2="40" /><line stroke="#00A000" stroke-dasharray="5 5" stroke-width="0.5" x1="361" x2="361" y1="0" y2="40" /><line marker-end="url(#id2)" marker-start="url(#id1)" stroke="#00A000" stroke-width="0.75" x1="88" x2="361" y1="10" y2="10" /><text fill="#00A000" font-family="Helevetica" font-size="6pt" stroke="none" text-anchor="middle" x="224.5" y="8.5">Mathworks</text><rect fill="#CD3F85" fill-opacity="0.15" height="110.0" width="146" x="361" y="0" /><line stroke="#CD3F85" stroke-dasharray="5 5" stroke-width="0.5" x1="361" x2="361" y1="0" y2="40" /><line stroke="#CD3F85" stroke-dasharray="5 5" stroke-width="0.5" x1="507" x2="507" y1="0" y2="40" /><line marker-end="url(#id4)" marker-start="url(#id3)" stroke="#CD3F85" stroke-width="0.75" x1="361" x2="507" y1="10" y2="10" /><text fill="#CD3F85" font-family="Helevetica" font-size="6pt" stroke="none" text-anchor="middle" x="434.0" y="8.5">Voyage Asie et Amérique du Sud</text><rect fill="#00A000" fill-opacity="0.15" height="110.0" width="49" x="546" y="0" /><line stroke="#00A000" stroke-dasharray="5 5" stroke-width="0.5" x1="546" x2="546" y1="0" y2="40" /><line stroke="#00A000" stroke-dasharray="5 5" stroke-width="0.5" x1="595" x2="595" y1="0" y2="40" /><line marker-end="url(#id2)" marker-start="url(#id1)" stroke="#00A000" stroke-width="0.75" x1="546" x2="595" y1="10" y2="10" /><text fill="#00A000" font-family="Helevetica" font-size="6pt" stroke="none" text-anchor="middle" x="570.5" y="8.5">Nicolas Bourbaki</text><rect fill="#00A000" fill-opacity="0.15" height="110.0" width="78" x="605" y="0" /><line stroke="#00A000" stroke-dasharray="5 5" stroke-width="0.5" x1="605" x2="605" y1="0" y2="40" /><line stroke="#00A000" stroke-dasharray="5 5" stroke-width="0.5" x1="683" x2="683" y1="0" y2="40" /><line marker-end="url(#id2)" marker-start="url(#id1)" stroke="#00A000" stroke-width="0.75" x1="605" x2="683" y1="10" y2="10" /><text fill="#00A000" font-family="Helevetica" font-size="6pt" stroke="none" text-anchor="middle" x="644.0" y="8.5">Kaizen</text><rect fill="#00A000" fill-opacity="0.15" height="110.0" width="30" x="683" y="0" /><line stroke="#00A000" stroke-dasharray="5 5" stroke-width="0.5" x1="683" x2="683" y1="0" y2="40" /><line stroke="#00A000" stroke-dasharray="5 5" stroke-width="0.5" x1="713" x2="713" y1="0" y2="40" /><line marker-end="url(#id2)" marker-start="url(#id1)" stroke="#00A000" stroke-width="0.75" x1="683" x2="713" y1="10" y2="10" /><text fill="#00A000" font-family="Helevetica" font-size="6pt" stroke="none" text-anchor="middle" x="698.0" y="8.5">Mentor</text><rect fill="#00A000" fill-opacity="0.15" height="110.0" width="107" x="723" y="0" /><line stroke="#00A000" stroke-dasharray="5 5" stroke-width="0.5" x1="723" x2="723" y1="0" y2="40" /><line stroke="#00A000" stroke-dasharray="5 5" stroke-width="0.5" x1="830" x2="830" y1="0" y2="40" /><line marker-end="url(#id2)" marker-start="url(#id1)" stroke="#00A000" stroke-width="0.75" x1="723" x2="830" y1="10" y2="10" /><text fill="#00A000" font-family="Helevetica" font-size="6pt" stroke="none" text-anchor="middle" x="776.5" y="8.5">INRIA</text><rect fill="#CD3F85" fill-opacity="0.15" height="110.0" width="28" x="830" y="0" /><line stroke="#CD3F85" stroke-dasharray="5 5" stroke-width="0.5" x1="830" x2="830" y1="0" y2="40" /><line stroke="#CD3F85" stroke-dasharray="5 5" stroke-width="0.5" x1="858" x2="858" y1="0" y2="40" /><line marker-end="url(#id4)" marker-start="url(#id3)" stroke="#CD3F85" stroke-width="0.75" x1="830" x2="858" y1="10" y2="10" /><text fill="#CD3F85" font-family="Helevetica" font-size="6pt" stroke="none" text-anchor="middle" x="844.0" y="8.5">Voyage Colombie</text><rect fill="#0000F0" fill-opacity="0.15" height="110.0" width="133" x="868" y="0" /><line stroke="#0000F0" stroke-dasharray="5 5" stroke-width="0.5" x1="868" x2="868" y1="0" y2="40" /><line stroke="#0000F0" stroke-dasharray="5 5" stroke-width="0.5" x1="1001" x2="1001" y1="0" y2="40" /><line marker-end="url(#id6)" marker-start="url(#id5)" stroke="#0000F0" stroke-width="0.75" x1="868" x2="1001" y1="10" y2="10" /><text fill="#0000F0" font-family="Helevetica" font-size="6pt" stroke="none" text-anchor="middle" x="934.5" y="8.5">CAP Charpente</text><rect fill="#00A000" fill-opacity="0.15" height="110.0" width="6" x="1034" y="0" /><line stroke="#00A000" stroke-dasharray="5 5" stroke-width="0.5" x1="1034" x2="1034" y1="0" y2="40" /><line stroke="#00A000" stroke-dasharray="5 5" stroke-width="0.5" x1="1040" x2="1040" y1="0" y2="40" /><line marker-end="url(#id2)" marker-start="url(#id1)" stroke="#00A000" stroke-width="0.75" x1="1034" x2="1040" y1="10" y2="10" /><text fill="#00A000" font-family="Helevetica" font-size="6pt" stroke="none" text-anchor="middle" x="1037.0" y="8.5">AllegroDVT</text><g transform="translate(0,40)"><line stroke="#000000" stroke-width="3" x1="0" x2="1050" y1="0" y2="0" /><line stroke="#000000" stroke-width="2" x1="10" x2="10" y1="-5" y2="5" /><text fill="#C0C0C0" font-family="Helevetica" font-size="6pt" stroke="none" text-anchor="end" transform="rotate(180, 10, 0)" writing-mode="tb" x="10" y="-10">Jan 01, 2011</text><line stroke="#000000" stroke-width="2" x1="1040" x2="1040" y1="-5" y2="5" /><text fill="#C0C0C0" font-family="Helevetica" font-size="6pt" stroke="none" text-anchor="end" transform="rotate(180, 1040, 0)" writing-mode="tb" x="1040" y="-10">Oct 19, 2019</text><path d="M88,0 L88,-15 L78,-15" fill="none" stroke="#000000" stroke-width="1" /><text fill="#000000" font-family="Helevetica" font-size="6pt" stroke="none" text-anchor="end" x="75" y="-13.5">Diplômé ENSIMAG</text><text fill="#000000" font-family="Helevetica" font-size="6pt" stroke="none" text-anchor="end" transform="rotate(180, 88, 0)" writing-mode="tb" x="88" y="-10">Sep 01, 2011</text><circle cx="88" cy="0" fill="white" r="4" stroke="#000000" stroke-width="1" /><text fill="#000000" font-family="Helevetica" font-size="6pt" stroke="none" text-anchor="end" transform="rotate(180, 20, 0)" writing-mode="tb" x="20" y="-10">Feb 01, 2011</text><text fill="#000000" font-family="Helevetica" font-size="6pt" stroke="none" text-anchor="end" transform="rotate(180, 88, 0)" writing-mode="tb" x="88" y="-10">Sep 01, 2011</text><text fill="#000000" font-family="Helevetica" font-size="6pt" stroke="none" text-anchor="end" transform="rotate(180, 88, 0)" writing-mode="tb" x="88" y="-10">Sep 01, 2011</text><text fill="#000000" font-family="Helevetica" font-size="6pt" stroke="none" text-anchor="end" transform="rotate(180, 361, 0)" writing-mode="tb" x="361" y="-10">Jan 01, 2014</text><text fill="#000000" font-family="Helevetica" font-size="6pt" stroke="none" text-anchor="end" transform="rotate(180, 361, 0)" writing-mode="tb" x="361" y="-10">Jan 01, 2014</text><text fill="#000000" font-family="Helevetica" font-size="6pt" stroke="none" text-anchor="end" transform="rotate(180, 507, 0)" writing-mode="tb" x="507" y="-10">Apr 01, 2015</text><text fill="#000000" font-family="Helevetica" font-size="6pt" stroke="none" text-anchor="end" transform="rotate(180, 546, 0)" writing-mode="tb" x="546" y="-10">Aug 01, 2015</text><text fill="#000000" font-family="Helevetica" font-size="6pt" stroke="none" text-anchor="end" transform="rotate(180, 595, 0)" writing-mode="tb" x="595" y="-10">Jan 01, 2016</text><text fill="#000000" font-family="Helevetica" font-size="6pt" stroke="none" text-anchor="end" transform="rotate(180, 605, 0)" writing-mode="tb" x="605" y="-10">Feb 01, 2016</text><text fill="#000000" font-family="Helevetica" font-size="6pt" stroke="none" text-anchor="end" transform="rotate(180, 683, 0)" writing-mode="tb" x="683" y="-10">Oct 01, 2016</text><text fill="#000000" font-family="Helevetica" font-size="6pt" stroke="none" text-anchor="end" transform="rotate(180, 683, 0)" writing-mode="tb" x="683" y="-10">Oct 01, 2016</text><text fill="#000000" font-family="Helevetica" font-size="6pt" stroke="none" text-anchor="end" transform="rotate(180, 713, 0)" writing-mode="tb" x="713" y="-10">Jan 01, 2017</text><text fill="#000000" font-family="Helevetica" font-size="6pt" stroke="none" text-anchor="end" transform="rotate(180, 723, 0)" writing-mode="tb" x="723" y="-10">Feb 01, 2017</text><text fill="#000000" font-family="Helevetica" font-size="6pt" stroke="none" text-anchor="end" transform="rotate(180, 830, 0)" writing-mode="tb" x="830" y="-10">Jan 01, 2018</text><text fill="#000000" font-family="Helevetica" font-size="6pt" stroke="none" text-anchor="end" transform="rotate(180, 830, 0)" writing-mode="tb" x="830" y="-10">Jan 01, 2018</text><text fill="#000000" font-family="Helevetica" font-size="6pt" stroke="none" text-anchor="end" transform="rotate(180, 858, 0)" writing-mode="tb" x="858" y="-10">Apr 01, 2018</text><text fill="#000000" font-family="Helevetica" font-size="6pt" stroke="none" text-anchor="end" transform="rotate(180, 868, 0)" writing-mode="tb" x="868" y="-10">May 01, 2018</text><text fill="#000000" font-family="Helevetica" font-size="6pt" stroke="none" text-anchor="end" transform="rotate(180, 1001, 0)" writing-mode="tb" x="1001" y="-10">Jun 21, 2019</text><text fill="#000000" font-family="Helevetica" font-size="6pt" stroke="none" text-anchor="end" transform="rotate(180, 1034, 0)" writing-mode="tb" x="1034" y="-10">Oct 01, 2019</text><text fill="#000000" font-family="Helevetica" font-size="6pt" stroke="none" text-anchor="end" transform="rotate(180, 1040, 0)" writing-mode="tb" x="1040" y="-10">Oct 19, 2019</text></g></svg>
