<svg baseProfile="full" height="79.0" version="1.1" width="1050" xmlns="http://www.w3.org/2000/svg" xmlns:ev="http://www.w3.org/2001/xml-events" xmlns:xlink="http://www.w3.org/1999/xlink"><defs><marker id="id1" markerHeight="10" markerWidth="10" orient="auto" refX="0" refY="3"><path d="M6,0 L6,7 L0,3 L6,0" fill="#00A000" /></marker><marker id="id2" markerHeight="10" markerWidth="10" orient="auto" refX="6" refY="3"><path d="M0,0 L0,7 L6,3 L0,0" fill="#00A000" /></marker><marker id="id3" markerHeight="10" markerWidth="10" orient="auto" refX="0" refY="3"><path d="M6,0 L6,7 L0,3 L6,0" fill="#CD3F85" /></marker><marker id="id4" markerHeight="10" markerWidth="10" orient="auto" refX="6" refY="3"><path d="M0,0 L0,7 L6,3 L0,0" fill="#CD3F85" /></marker><marker id="id5" markerHeight="10" markerWidth="10" orient="auto" refX="0" refY="3"><path d="M6,0 L6,7 L0,3 L6,0" fill="#0000F0" /></marker><marker id="id6" markerHeight="10" markerWidth="10" orient="auto" refX="6" refY="3"><path d="M0,0 L0,7 L6,3 L0,0" fill="#0000F0" /></marker></defs><rect fill="#00A000" fill-opacity="0.15" height="79.0" width="40" x="10" y="0" /><line stroke="#00A000" stroke-dasharray="5 5" stroke-width="0.5" x1="10" x2="10" y1="0" y2="40" /><line stroke="#00A000" stroke-dasharray="5 5" stroke-width="0.5" x1="50" x2="50" y1="0" y2="40" /><line marker-end="url(#id2)" marker-start="url(#id1)" stroke="#00A000" stroke-width="0.75" x1="10" x2="50" y1="10" y2="10" /><text fill="#00A000" font-family="Helevetica" font-size="6pt" stroke="none" text-anchor="middle" x="30.0" y="8.5">STMicro</text><rect fill="#00A000" fill-opacity="0.15" height="79.0" width="162" x="50" y="0" /><line stroke="#00A000" stroke-dasharray="5 5" stroke-width="0.5" x1="50" x2="50" y1="0" y2="40" /><line stroke="#00A000" stroke-dasharray="5 5" stroke-width="0.5" x1="212" x2="212" y1="0" y2="40" /><line marker-end="url(#id2)" marker-start="url(#id1)" stroke="#00A000" stroke-width="0.75" x1="50" x2="212" y1="10" y2="10" /><text fill="#00A000" font-family="Helevetica" font-size="6pt" stroke="none" text-anchor="middle" x="131.0" y="8.5">Mathworks</text><rect fill="#CD3F85" fill-opacity="0.15" height="79.0" width="98" x="212" y="0" /><line stroke="#CD3F85" stroke-dasharray="5 5" stroke-width="0.5" x1="212" x2="212" y1="0" y2="40" /><line stroke="#CD3F85" stroke-dasharray="5 5" stroke-width="0.5" x1="310" x2="310" y1="0" y2="40" /><line marker-end="url(#id4)" marker-start="url(#id3)" stroke="#CD3F85" stroke-width="0.75" x1="212" x2="310" y1="10" y2="10" /><text fill="#CD3F85" font-family="Helevetica" font-size="6pt" stroke="none" text-anchor="middle" x="261.0" y="8.5">Travel Asia/South America</text><rect fill="#00A000" fill-opacity="0.15" height="79.0" width="40" x="322" y="0" /><line stroke="#00A000" stroke-dasharray="5 5" stroke-width="0.5" x1="322" x2="322" y1="0" y2="40" /><line stroke="#00A000" stroke-dasharray="5 5" stroke-width="0.5" x1="362" x2="362" y1="0" y2="40" /><line marker-end="url(#id2)" marker-start="url(#id1)" stroke="#00A000" stroke-width="0.75" x1="322" x2="362" y1="10" y2="10" /><text fill="#00A000" font-family="Helevetica" font-size="6pt" stroke="none" text-anchor="middle" x="342.0" y="8.5">Nicolas Bourbaki</text><rect fill="#00A000" fill-opacity="0.15" height="79.0" width="63" x="357" y="0" /><line stroke="#00A000" stroke-dasharray="5 5" stroke-width="0.5" x1="357" x2="357" y1="0" y2="40" /><line stroke="#00A000" stroke-dasharray="5 5" stroke-width="0.5" x1="420" x2="420" y1="0" y2="40" /><line marker-end="url(#id2)" marker-start="url(#id1)" stroke="#00A000" stroke-width="0.75" x1="357" x2="420" y1="10" y2="10" /><text fill="#00A000" font-family="Helevetica" font-size="6pt" stroke="none" text-anchor="middle" x="388.5" y="8.5">Kaizen</text><rect fill="#00A000" fill-opacity="0.15" height="79.0" width="69" x="420" y="0" /><line stroke="#00A000" stroke-dasharray="5 5" stroke-width="0.5" x1="420" x2="420" y1="0" y2="40" /><line stroke="#00A000" stroke-dasharray="5 5" stroke-width="0.5" x1="489" x2="489" y1="0" y2="40" /><line marker-end="url(#id2)" marker-start="url(#id1)" stroke="#00A000" stroke-width="0.75" x1="420" x2="489" y1="10" y2="10" /><text fill="#00A000" font-family="Helevetica" font-size="6pt" stroke="none" text-anchor="middle" x="454.5" y="8.5">INRIA</text><rect fill="#CD3F85" fill-opacity="0.15" height="79.0" width="17" x="489" y="0" /><line stroke="#CD3F85" stroke-dasharray="5 5" stroke-width="0.5" x1="489" x2="489" y1="0" y2="40" /><line stroke="#CD3F85" stroke-dasharray="5 5" stroke-width="0.5" x1="506" x2="506" y1="0" y2="40" /><line marker-end="url(#id4)" marker-start="url(#id3)" stroke="#CD3F85" stroke-width="0.75" x1="489" x2="506" y1="10" y2="10" /><text fill="#CD3F85" font-family="Helevetica" font-size="6pt" stroke="none" text-anchor="middle" x="497.5" y="8.5">Traval Colombia</text><rect fill="#0000F0" fill-opacity="0.15" height="79.0" width="87" x="506" y="0" /><line stroke="#0000F0" stroke-dasharray="5 5" stroke-width="0.5" x1="506" x2="506" y1="0" y2="40" /><line stroke="#0000F0" stroke-dasharray="5 5" stroke-width="0.5" x1="593" x2="593" y1="0" y2="40" /><line marker-end="url(#id6)" marker-start="url(#id5)" stroke="#0000F0" stroke-width="0.75" x1="506" x2="593" y1="10" y2="10" /><text fill="#0000F0" font-family="Helevetica" font-size="6pt" stroke="none" text-anchor="middle" x="549.5" y="8.5">Carpenter Diploma</text><rect fill="#00A000" fill-opacity="0.15" height="79.0" width="156" x="610" y="0" /><line stroke="#00A000" stroke-dasharray="5 5" stroke-width="0.5" x1="610" x2="610" y1="0" y2="40" /><line stroke="#00A000" stroke-dasharray="5 5" stroke-width="0.5" x1="766" x2="766" y1="0" y2="40" /><line marker-end="url(#id2)" marker-start="url(#id1)" stroke="#00A000" stroke-width="0.75" x1="610" x2="766" y1="10" y2="10" /><text fill="#00A000" font-family="Helevetica" font-size="6pt" stroke="none" text-anchor="middle" x="688.0" y="8.5">AllegroDVT</text><rect fill="#00A000" fill-opacity="0.15" height="79.0" width="263" x="777" y="0" /><line stroke="#00A000" stroke-dasharray="5 5" stroke-width="0.5" x1="777" x2="777" y1="0" y2="40" /><line stroke="#00A000" stroke-dasharray="5 5" stroke-width="0.5" x1="1040" x2="1040" y1="0" y2="40" /><line marker-end="url(#id2)" marker-start="url(#id1)" stroke="#00A000" stroke-width="0.75" x1="777" x2="1040" y1="10" y2="10" /><text fill="#00A000" font-family="Helevetica" font-size="6pt" stroke="none" text-anchor="middle" x="908.5" y="8.5">Linaro</text><g transform="translate(0,40)"><line stroke="#000000" stroke-width="3" x1="0" x2="1050" y1="0" y2="0" /><line stroke="#000000" stroke-width="2" x1="10" x2="10" y1="-5" y2="5" /><text fill="#C0C0C0" font-family="Helevetica" font-size="6pt" stroke="none" text-anchor="end" transform="rotate(180, 10, 0)" writing-mode="tb" x="10" y="-10">Feb 01, 2011</text><line stroke="#000000" stroke-width="2" x1="1040" x2="1040" y1="-5" y2="5" /><text fill="#C0C0C0" font-family="Helevetica" font-size="6pt" stroke="none" text-anchor="end" transform="rotate(180, 1040, 0)" writing-mode="tb" x="1040" y="-10">Dec 13, 2025</text><path d="M50,0 L50,-15 L40,-15" fill="none" stroke="#000000" stroke-width="1" /><text fill="#000000" font-family="Helevetica" font-size="6pt" stroke="none" text-anchor="end" x="37" y="-13.5">Graduated</text><text fill="#000000" font-family="Helevetica" font-size="6pt" stroke="none" text-anchor="end" transform="rotate(180, 50, 0)" writing-mode="tb" x="50" y="-10">Sep 01, 2011</text><circle cx="50" cy="0" fill="white" r="4" stroke="#000000" stroke-width="1" /><text fill="#000000" font-family="Helevetica" font-size="6pt" stroke="none" text-anchor="end" transform="rotate(180, 10, 0)" writing-mode="tb" x="10" y="-10">Feb 01, 2011</text><text fill="#000000" font-family="Helevetica" font-size="6pt" stroke="none" text-anchor="end" transform="rotate(180, 50, 0)" writing-mode="tb" x="50" y="-10">Sep 01, 2011</text><text fill="#000000" font-family="Helevetica" font-size="6pt" stroke="none" text-anchor="end" transform="rotate(180, 50, 0)" writing-mode="tb" x="50" y="-10">Sep 01, 2011</text><text fill="#000000" font-family="Helevetica" font-size="6pt" stroke="none" text-anchor="end" transform="rotate(180, 212, 0)" writing-mode="tb" x="212" y="-10">Jan 01, 2014</text><text fill="#000000" font-family="Helevetica" font-size="6pt" stroke="none" text-anchor="end" transform="rotate(180, 212, 0)" writing-mode="tb" x="212" y="-10">Jan 01, 2014</text><text fill="#000000" font-family="Helevetica" font-size="6pt" stroke="none" text-anchor="end" transform="rotate(180, 310, 0)" writing-mode="tb" x="310" y="-10">Jun 01, 2015</text><text fill="#000000" font-family="Helevetica" font-size="6pt" stroke="none" text-anchor="end" transform="rotate(180, 322, 0)" writing-mode="tb" x="322" y="-10">Aug 01, 2015</text><text fill="#000000" font-family="Helevetica" font-size="6pt" stroke="none" text-anchor="end" transform="rotate(180, 362, 0)" writing-mode="tb" x="362" y="-10">Mar 01, 2016</text><text fill="#000000" font-family="Helevetica" font-size="6pt" stroke="none" text-anchor="end" transform="rotate(180, 357, 0)" writing-mode="tb" x="357" y="-10">Feb 01, 2016</text><text fill="#000000" font-family="Helevetica" font-size="6pt" stroke="none" text-anchor="end" transform="rotate(180, 420, 0)" writing-mode="tb" x="420" y="-10">Jan 01, 2017</text><text fill="#000000" font-family="Helevetica" font-size="6pt" stroke="none" text-anchor="end" transform="rotate(180, 420, 0)" writing-mode="tb" x="420" y="-10">Jan 01, 2017</text><text fill="#000000" font-family="Helevetica" font-size="6pt" stroke="none" text-anchor="end" transform="rotate(180, 489, 0)" writing-mode="tb" x="489" y="-10">Jan 01, 2018</text><text fill="#000000" font-family="Helevetica" font-size="6pt" stroke="none" text-anchor="end" transform="rotate(180, 489, 0)" writing-mode="tb" x="489" y="-10">Jan 01, 2018</text><text fill="#000000" font-family="Helevetica" font-size="6pt" stroke="none" text-anchor="end" transform="rotate(180, 506, 0)" writing-mode="tb" x="506" y="-10">Apr 01, 2018</text><text fill="#000000" font-family="Helevetica" font-size="6pt" stroke="none" text-anchor="end" transform="rotate(180, 506, 0)" writing-mode="tb" x="506" y="-10">Apr 01, 2018</text><text fill="#000000" font-family="Helevetica" font-size="6pt" stroke="none" text-anchor="end" transform="rotate(180, 593, 0)" writing-mode="tb" x="593" y="-10">Jul 01, 2019</text><text fill="#000000" font-family="Helevetica" font-size="6pt" stroke="none" text-anchor="end" transform="rotate(180, 610, 0)" writing-mode="tb" x="610" y="-10">Oct 01, 2019</text><text fill="#000000" font-family="Helevetica" font-size="6pt" stroke="none" text-anchor="end" transform="rotate(180, 766, 0)" writing-mode="tb" x="766" y="-10">Jan 01, 2022</text><text fill="#000000" font-family="Helevetica" font-size="6pt" stroke="none" text-anchor="end" transform="rotate(180, 777, 0)" writing-mode="tb" x="777" y="-10">Mar 01, 2022</text><text fill="#000000" font-family="Helevetica" font-size="6pt" stroke="none" text-anchor="end" transform="rotate(180, 1040, 0)" writing-mode="tb" x="1040" y="-10">Dec 13, 2025</text></g></svg>
